<svg width="202" height="43" viewBox="0 0 202 43" fill="none" xmlns="http://www.w3.org/2000/svg">
<g clip-path="url(#clip0_589_458)">
<path d="M105.302 9.55885C107.709 9.5432 110.066 10.2426 112.074 11.5684C114.082 12.8941 115.651 14.7865 116.582 17.0054C117.513 19.2243 117.765 21.6698 117.304 24.0316C116.843 26.3934 115.691 28.5652 113.994 30.2714C112.297 31.9776 110.132 33.1413 107.772 33.615C105.413 34.0886 102.966 33.8509 100.742 32.9319C98.5185 32.0128 96.6176 30.454 95.2809 28.453C93.9442 26.4521 93.232 24.0992 93.2345 21.6929C93.2273 20.1029 93.534 18.5272 94.1371 17.0561C94.7402 15.5849 95.6278 14.2473 96.749 13.12C97.8702 11.9927 99.2029 11.0978 100.671 10.4867C102.139 9.8756 103.713 9.56028 105.302 9.55885ZM105.302 30.3999C107.034 30.406 108.729 29.8977 110.171 28.9395C111.613 27.9813 112.739 26.6163 113.404 25.0176C114.07 23.419 114.245 21.6587 113.909 19.96C113.573 18.2613 112.739 16.7008 111.515 15.4764C110.291 14.2519 108.73 13.4187 107.031 13.0824C105.333 12.746 103.572 12.9218 101.974 13.5873C100.375 14.2528 99.01 15.3781 98.0518 16.8204C97.0936 18.2628 96.5854 19.9572 96.5915 21.6888C96.5986 23.997 97.5187 26.2085 99.1508 27.8406C100.783 29.4727 102.994 30.3927 105.302 30.3999Z" fill="#FAF6F5"/>
<path d="M184.672 10.5339C184.672 10.45 184.688 10.3669 184.72 10.2893C184.752 10.2117 184.799 10.1412 184.858 10.0818C184.917 10.0225 184.988 9.97539 185.065 9.94331C185.143 9.91124 185.226 9.89479 185.31 9.89492H194.453C195.407 9.88503 196.353 10.0634 197.238 10.4198C198.123 10.7762 198.928 11.3036 199.609 11.9718C200.289 12.6401 200.832 13.436 201.204 14.3141C201.577 15.1922 201.772 16.1351 201.78 17.0889C201.737 18.5961 201.238 20.0548 200.35 21.2729C199.461 22.4909 198.224 23.411 196.802 23.9119L201.408 32.4509C201.47 32.5496 201.504 32.6636 201.506 32.7802C201.507 32.8969 201.477 33.0118 201.418 33.1124C201.359 33.2129 201.273 33.2953 201.17 33.3504C201.067 33.4055 200.951 33.4313 200.835 33.4249H198.217C198.109 33.4261 198.002 33.3991 197.908 33.3464C197.813 33.2938 197.734 33.2175 197.678 33.1249L193.208 24.2169H188.136V32.7889C188.13 32.9563 188.061 33.1153 187.943 33.2337C187.824 33.3521 187.665 33.4212 187.498 33.4269H185.312C185.228 33.4271 185.145 33.4106 185.068 33.3786C184.99 33.3466 184.92 33.2996 184.86 33.2404C184.801 33.1811 184.754 33.1107 184.722 33.0332C184.69 32.9558 184.674 32.8727 184.674 32.7889L184.672 10.5339ZM194.184 21.3229C195.277 21.3033 196.319 20.8557 197.085 20.0764C197.852 19.297 198.282 18.2481 198.284 17.1549C198.253 16.0866 197.808 15.0722 197.043 14.3259C196.278 13.5795 195.253 13.1597 194.184 13.1549H188.201V21.3249L194.184 21.3229Z" fill="#FAF6F5"/>
<path d="M147.12 9.89454H144.731C144.611 9.89455 144.494 9.92954 144.393 9.99525C144.293 10.061 144.214 10.1545 144.166 10.2645L136.766 26.9035H136.566L129.166 10.2645C129.114 10.1573 129.033 10.0663 128.934 10.0011C128.834 9.93595 128.719 9.89911 128.6 9.89454H126.213C126.106 9.88586 125.999 9.9061 125.903 9.95312C125.807 10.0001 125.725 10.0722 125.667 10.1617C125.609 10.2512 125.575 10.3548 125.571 10.4616C125.566 10.5684 125.591 10.6744 125.642 10.7685L135.895 33.3945C135.895 33.4055 135.911 33.4155 135.917 33.4275H137.35C137.357 33.4165 137.366 33.4065 137.372 33.3945L147.693 10.7685C147.741 10.6741 147.764 10.5683 147.759 10.4621C147.753 10.356 147.719 10.2532 147.661 10.1642C147.603 10.0753 147.522 10.0035 147.427 9.9561C147.332 9.90871 147.226 9.88747 147.12 9.89454Z" fill="#FAF6F5"/>
<path d="M80.1254 26.4817C79.0937 28.0465 77.5853 29.2372 75.8237 29.8773C74.0621 30.5175 72.1411 30.573 70.3455 30.0357C68.5499 29.4983 66.9752 28.3967 65.8548 26.8942C64.7344 25.3916 64.128 23.568 64.1254 21.6937C64.1071 19.8542 64.6729 18.0562 65.7414 16.5588C66.81 15.0613 68.3261 13.9415 70.0716 13.3606C71.8171 12.7797 73.7019 12.7676 75.4547 13.3262C77.2075 13.8847 78.7379 14.985 79.8255 16.4687L82.9334 14.9837C81.4825 12.8065 79.3638 11.1592 76.8961 10.2898C74.4284 9.42042 71.7451 9.37585 69.2498 10.1628C66.7546 10.9498 64.5824 12.5258 63.06 14.6536C61.5375 16.7815 60.7472 19.3462 60.8079 21.9618C60.8687 24.5775 61.7772 27.1028 63.3967 29.1577C65.0162 31.2126 67.2592 32.6861 69.7883 33.3564C72.3174 34.0267 74.9957 33.8577 77.4204 32.8747C79.8452 31.8917 81.8851 30.1479 83.2334 27.9057L80.1254 26.4817Z" fill="#FAF6F5"/>
<path d="M171.729 13.0545C171.813 13.0547 171.896 13.0382 171.973 13.0062C172.051 12.9741 172.121 12.927 172.181 12.8677C172.24 12.8083 172.287 12.7378 172.319 12.6602C172.351 12.5826 172.368 12.4995 172.368 12.4155V10.5335C172.368 10.4496 172.351 10.3664 172.319 10.2888C172.287 10.2113 172.24 10.1408 172.181 10.0814C172.121 10.022 172.051 9.97497 171.973 9.9429C171.896 9.91084 171.813 9.8944 171.729 9.89453H158.279C158.195 9.8944 158.112 9.91085 158.034 9.94293C157.957 9.975 157.886 10.0221 157.827 10.0815C157.768 10.1408 157.721 10.2113 157.689 10.2889C157.657 10.3665 157.64 10.4496 157.641 10.5335V32.7865C157.64 32.8703 157.657 32.9534 157.689 33.0308C157.721 33.1083 157.768 33.1787 157.827 33.238C157.887 33.2972 157.957 33.3442 158.034 33.3762C158.112 33.4083 158.195 33.4247 158.279 33.4245H171.729C171.813 33.4247 171.896 33.4083 171.973 33.3763C172.051 33.3442 172.121 33.2973 172.18 33.238C172.24 33.1788 172.287 33.1084 172.319 33.0309C172.351 32.9534 172.368 32.8704 172.368 32.7865V30.9365C172.368 30.8527 172.351 30.7696 172.319 30.6921C172.287 30.6147 172.24 30.5443 172.18 30.485C172.121 30.4258 172.051 30.3788 171.973 30.3468C171.896 30.3148 171.813 30.2984 171.729 30.2985H161.171V23.0775H170.079C170.248 23.0775 170.411 23.0102 170.531 22.8904C170.65 22.7705 170.718 22.608 170.718 22.4385V20.5505C170.712 20.3831 170.642 20.2241 170.524 20.1057C170.405 19.9873 170.246 19.9182 170.079 19.9125H161.171V13.0545H171.729Z" fill="#FAF6F5"/>
<path d="M42.06 15.4762L9.38 0.512161C8.51629 0.117296 7.56707 -0.0537682 6.61985 0.0147391C5.67263 0.0832463 4.7579 0.38912 3.96 0.904161L2.588 1.79016C1.79439 2.30269 1.14177 3.0058 0.689705 3.83535C0.23764 4.66489 0.000525471 5.59444 5.56125e-08 6.53916V35.9152C-0.000132406 36.8599 0.236366 37.7897 0.68791 38.6196C1.13945 39.4495 1.79166 40.1531 2.585 40.6662L4.245 41.7432C5.0568 42.2682 5.98959 42.5763 6.95437 42.6383C7.91915 42.7003 8.88371 42.514 9.756 42.0972L42.121 26.6252C43.0632 26.1749 43.8623 25.4726 44.43 24.5961C44.9976 23.7196 45.3115 22.7031 45.337 21.6592L45.36 20.7542C45.3863 19.6481 45.0878 18.5586 44.5012 17.6205C43.9147 16.6823 43.0659 15.9368 42.06 15.4762ZM7.337 36.6662L5.937 35.7612V5.47016L39.992 21.0612L7.337 36.6662Z" fill="url(#paint0_linear_589_458)"/>
<g style="mix-blend-mode:color-burn">
<path d="M42.0625 15.4751L9.3785 0.511091C8.51531 0.116939 7.56684 -0.0537413 6.62039 0.0147607C5.67394 0.0832628 4.75994 0.388746 3.9625 0.903091L2.5875 1.78909C1.99322 2.1719 1.47596 2.66271 1.0625 3.23609L45.0255 23.3671C45.216 22.8168 45.3203 22.2403 45.3345 21.6581L45.3575 20.7531C45.3838 19.647 45.0853 18.5575 44.4987 17.6194C43.9122 16.6813 43.0634 15.9358 42.0575 15.4751H42.0625Z" fill="#485AF7"/>
</g>
</g>
<defs>
<linearGradient id="paint0_linear_589_458" x1="31.8892" y1="4.81944" x2="1.35575" y2="39.369" gradientUnits="userSpaceOnUse">
<stop stop-color="#B4EEFA"/>
<stop offset="0.32" stop-color="#5DDBEC"/>
<stop offset="0.62" stop-color="#51CCE8"/>
<stop offset="1" stop-color="#38ABE0"/>
</linearGradient>
<clipPath id="clip0_589_458">
<rect width="201.779" height="42.651" fill="white"/>
</clipPath>
</defs>
</svg>
