<svg width="100" height="115" viewBox="0 0 100 115" fill="none" xmlns="http://www.w3.org/2000/svg">
<rect x="6.89844" y="12.0693" width="86.2069" height="86.2069" fill="#FAF6F5"/>
<path d="M14.2857 7.17188C6.40625 7.17188 0 13.6044 0 21.5161V93.2375C0 101.149 6.40625 107.582 14.2857 107.582H85.7143C93.5937 107.582 100 101.149 100 93.2375V21.5161C100 13.6044 93.5937 7.17188 85.7143 7.17188H14.2857ZM80.6027 25.9987L57.433 52.5804L84.6875 88.7549H63.3482L46.6518 66.8126L27.5223 88.7549H16.9196L41.6964 60.3129L15.558 25.9987H37.433L52.5446 46.0583L70 25.9987H80.6027ZM72.1652 82.3896L34.2411 32.0278H27.9241L66.2723 82.3896H72.1429H72.1652Z" fill="black"/>
</svg>
